<?xml version="1.0" encoding="UTF-8"?>
<svg xmlns="http://www.w3.org/2000/svg" xmlns:xlink="http://www.w3.org/1999/xlink" width="128px" height="128px" viewBox="0 0 128 128" version="1.1">
<g id="surface1">
<path style=" stroke:none;fill-rule:nonzero;fill:rgb(0%,0%,0%);fill-opacity:1;" d="M 30.507812 66.964844 L 45.800781 66.964844 L 48.335938 73.929688 C 48.515625 74.324219 48.757812 74.628906 49.066406 74.835938 C 49.375 75.042969 49.738281 75.148438 50.15625 75.148438 C 50.859375 75.148438 51.398438 74.867188 51.769531 74.308594 C 52.144531 73.746094 52.21875 73.125 52 72.441406 L 41.269531 43.945312 C 41.089844 43.484375 40.792969 43.109375 40.375 42.820312 C 39.953125 42.535156 39.5 42.394531 39.011719 42.394531 L 37.289062 42.394531 C 36.808594 42.394531 36.355469 42.535156 35.929688 42.820312 C 35.507812 43.105469 35.207031 43.480469 35.035156 43.945312 L 24.308594 72.542969 C 24.089844 73.160156 24.164062 73.746094 24.539062 74.304688 C 24.910156 74.867188 25.449219 75.148438 26.15625 75.148438 C 26.570312 75.148438 26.9375 75.042969 27.257812 74.835938 C 27.578125 74.632812 27.824219 74.316406 28 73.898438 Z M 32.03125 63.054688 L 38.019531 46.734375 L 38.289062 46.734375 L 44.277344 63.054688 Z M 34.667969 85.535156 C 39.324219 85.535156 43.851562 86.070312 48.25 87.140625 C 52.652344 88.210938 57.011719 89.953125 61.332031 92.367188 L 61.332031 40.042969 C 57.484375 37.292969 53.238281 35.230469 48.601562 33.855469 C 43.96875 32.484375 39.324219 31.796875 34.667969 31.796875 C 31.464844 31.796875 28.664062 31.988281 26.261719 32.367188 C 23.859375 32.753906 21.191406 33.464844 18.261719 34.5 C 17.4375 34.773438 16.851562 35.167969 16.511719 35.679688 C 16.171875 36.195312 16 36.761719 16 37.375 L 16 85.457031 C 16 86.414062 16.339844 87.117188 17.023438 87.558594 C 17.710938 88 18.460938 88.054688 19.28125 87.71875 C 21.226562 87.058594 23.480469 86.53125 26.039062 86.132812 C 28.589844 85.734375 31.464844 85.535156 34.667969 85.535156 M 66.667969 92.367188 C 70.988281 89.953125 75.347656 88.210938 79.75 87.140625 C 84.148438 86.074219 88.675781 85.542969 93.332031 85.542969 C 96.535156 85.542969 99.410156 85.738281 101.960938 86.132812 C 104.519531 86.53125 106.773438 87.058594 108.71875 87.710938 C 109.539062 88.054688 110.289062 88 110.976562 87.558594 C 111.660156 87.113281 112 86.414062 112 85.457031 L 112 37.375 C 112 36.761719 111.828125 36.214844 111.488281 35.734375 C 111.148438 35.253906 110.566406 34.84375 109.742188 34.507812 C 106.8125 33.464844 104.140625 32.753906 101.738281 32.375 C 99.335938 31.988281 96.535156 31.796875 93.332031 31.796875 C 88.675781 31.796875 84.03125 32.484375 79.398438 33.855469 C 74.761719 35.230469 70.515625 37.292969 66.667969 40.042969 Z M 64 98.433594 C 63.164062 98.433594 62.394531 98.328125 61.695312 98.117188 C 60.996094 97.90625 60.328125 97.640625 59.691406 97.316406 C 55.816406 95.203125 51.78125 93.597656 47.585938 92.507812 C 43.382812 91.414062 39.074219 90.871094 34.667969 90.871094 C 31.894531 90.871094 29.167969 91.101562 26.484375 91.566406 C 23.808594 92.035156 21.203125 92.78125 18.667969 93.808594 C 16.734375 94.578125 14.914062 94.347656 13.214844 93.109375 C 11.515625 91.871094 10.667969 90.160156 10.667969 87.980469 L 10.667969 36.433594 C 10.667969 35.113281 11.011719 33.886719 11.707031 32.757812 C 12.398438 31.628906 13.371094 30.84375 14.625 30.398438 C 17.757812 29.019531 21.015625 28.019531 24.398438 27.398438 C 27.785156 26.773438 31.207031 26.464844 34.667969 26.464844 C 39.894531 26.464844 44.988281 27.214844 49.953125 28.71875 C 54.917969 30.222656 59.601562 32.410156 64 35.28125 C 68.398438 32.410156 73.082031 30.222656 78.046875 28.71875 C 83.015625 27.214844 88.109375 26.464844 93.332031 26.464844 C 96.792969 26.464844 100.214844 26.773438 103.601562 27.398438 C 106.984375 28.019531 110.242188 29.019531 113.375 30.398438 C 114.628906 30.84375 115.601562 31.628906 116.292969 32.757812 C 116.988281 33.886719 117.332031 35.113281 117.332031 36.433594 L 117.332031 87.980469 C 117.332031 90.160156 116.414062 91.835938 114.582031 93.003906 C 112.742188 94.175781 110.789062 94.375 108.714844 93.601562 C 106.246094 92.640625 103.726562 91.945312 101.152344 91.519531 C 98.578125 91.085938 95.972656 90.871094 93.332031 90.871094 C 88.925781 90.871094 84.621094 91.414062 80.421875 92.507812 C 76.222656 93.597656 72.183594 95.199219 68.308594 97.3125 C 67.667969 97.640625 67 97.90625 66.304688 98.117188 C 65.605469 98.328125 64.835938 98.433594 64 98.433594 M 74.054688 47.722656 C 74.054688 47.332031 74.1875 46.9375 74.457031 46.539062 C 74.730469 46.136719 75.050781 45.839844 75.417969 45.644531 C 78.132812 44.414062 81 43.46875 84.019531 42.816406 C 87.042969 42.167969 90.148438 41.84375 93.332031 41.84375 C 95.039062 41.84375 96.65625 41.941406 98.1875 42.128906 C 99.714844 42.316406 101.289062 42.589844 102.910156 42.945312 C 103.371094 43.050781 103.769531 43.289062 104.105469 43.664062 C 104.445312 44.03125 104.613281 44.488281 104.613281 45.035156 C 104.613281 45.929688 104.347656 46.582031 103.8125 46.988281 C 103.28125 47.386719 102.566406 47.480469 101.667969 47.265625 C 100.355469 46.996094 99.011719 46.8125 97.636719 46.714844 C 96.257812 46.613281 94.824219 46.566406 93.332031 46.566406 C 90.476562 46.566406 87.679688 46.839844 84.945312 47.386719 C 82.210938 47.933594 79.613281 48.699219 77.15625 49.679688 C 76.242188 50.027344 75.496094 50.019531 74.917969 49.652344 C 74.339844 49.285156 74.054688 48.640625 74.054688 47.722656 M 74.054688 76.644531 C 74.054688 76.253906 74.1875 75.839844 74.457031 75.40625 C 74.730469 74.972656 75.050781 74.660156 75.417969 74.464844 C 77.992188 73.230469 80.859375 72.304688 84.019531 71.691406 C 87.179688 71.074219 90.28125 70.769531 93.332031 70.769531 C 95.039062 70.769531 96.65625 70.863281 98.1875 71.050781 C 99.714844 71.238281 101.289062 71.511719 102.910156 71.867188 C 103.371094 71.972656 103.769531 72.214844 104.105469 72.585938 C 104.445312 72.953125 104.613281 73.410156 104.613281 73.957031 C 104.613281 74.851562 104.347656 75.503906 103.8125 75.910156 C 103.28125 76.3125 102.566406 76.402344 101.667969 76.1875 C 100.355469 75.921875 99.011719 75.738281 97.636719 75.636719 C 96.257812 75.539062 94.824219 75.488281 93.332031 75.488281 C 90.542969 75.488281 87.796875 75.773438 85.097656 76.339844 C 82.394531 76.914062 79.820312 77.726562 77.367188 78.777344 C 76.449219 79.195312 75.664062 79.1875 75.019531 78.761719 C 74.375 78.335938 74.054688 77.628906 74.054688 76.644531 M 74.054688 62.289062 C 74.054688 61.898438 74.1875 61.503906 74.457031 61.105469 C 74.730469 60.703125 75.050781 60.402344 75.417969 60.203125 C 78.132812 58.972656 81 58.035156 84.019531 57.386719 C 87.042969 56.734375 90.148438 56.410156 93.332031 56.410156 C 95.039062 56.410156 96.65625 56.503906 98.1875 56.691406 C 99.714844 56.882812 101.289062 57.152344 102.910156 57.507812 C 103.371094 57.617188 103.769531 57.855469 104.105469 58.222656 C 104.445312 58.59375 104.613281 59.050781 104.613281 59.601562 C 104.613281 60.496094 104.347656 61.144531 103.8125 61.546875 C 103.28125 61.953125 102.566406 62.042969 101.667969 61.824219 C 100.355469 61.558594 99.011719 61.375 97.636719 61.273438 C 96.257812 61.179688 94.824219 61.128906 93.332031 61.128906 C 90.476562 61.128906 87.679688 61.402344 84.945312 61.945312 C 82.207031 62.496094 79.609375 63.261719 77.15625 64.246094 C 76.242188 64.59375 75.496094 64.582031 74.917969 64.214844 C 74.339844 63.847656 74.054688 63.207031 74.054688 62.289062 "/>
</g>
</svg>
